<?xml version="1.0" encoding="iso-8859-1"?>
<!-- Generator: Adobe Illustrator 17.1.0, SVG Export Plug-In . SVG Version: 6.00 Build 0)  -->
<!DOCTYPE svg PUBLIC "-//W3C//DTD SVG 1.1//EN" "http://www.w3.org/Graphics/SVG/1.1/DTD/svg11.dtd">
<svg version="1.1" id="Layer_1" xmlns="http://www.w3.org/2000/svg" xmlns:xlink="http://www.w3.org/1999/xlink" x="0px" y="0px"
	 viewBox="0 152.729 612 402.716" style="enable-background:new 0 152.729 612 402.716;" xml:space="preserve">
<path d="M306,152.686c-169,0-306,131.888-306,300.888c0,37.642,6.834,71.855,19.266,101.872h573.467
	C605.167,525.429,612,491.215,612,453.574C612,284.574,474.998,152.686,306,152.686z M446.561,375.482
	c4.215-3.307,10.312-2.569,13.618,1.645c2.093,2.668,4.357,11.855,5.735,18.236c0.581,2.687-2.182,4.855-4.654,3.651
	c-5.869-2.86-14.252-7.245-16.345-9.914C441.61,384.883,442.346,378.787,446.561,375.482z M343.6,478.957
	c-10.388-5.847-24.775-14.418-28.316-18.905c-5.7-7.223,18.63-26.425,24.328-19.203c3.542,4.487,8.538,20.472,11.811,31.934
	C352.748,477.418,347.801,481.322,343.6,478.957z M323.304,378.017c5.834-4.577,14.276-3.558,18.852,2.278
	c4.577,5.834,3.558,14.276-2.278,18.852c-5.834,4.577-14.276,3.556-18.854-2.278C316.449,391.035,317.47,382.596,323.304,378.017z
	 M467.467,477.758c-10.493,8.233-23.172,12.59-36.307,12.591c-2.387,0-4.789-0.144-7.198-0.436
	c-15.652-1.893-29.629-9.765-39.359-22.169c-14.438-18.408-15.644-43.817-16.919-70.716c-1.531-32.286-3.112-65.671-27.129-89.688
	c-7.882-7.877-24.63-20.969-47.71-19.912c-21.717,0.964-44.346,13.768-67.406,38.09c4.558,1.34,9.06,3.008,13.456,5.095
	c6.438,3.057,9.179,10.754,6.12,17.194c-3.057,6.438-10.749,9.179-17.194,6.119c-22.089-10.49-47.77-7.637-67.003,7.446
	c-13.448,10.549-21.985,25.704-24.036,42.675c-2.052,16.971,2.63,33.725,13.179,47.173c10.549,13.448,25.706,21.985,42.673,24.034
	c16.966,2.059,33.722-2.629,47.173-13.179c7.912-6.209,14.084-13.922,18.342-22.928c3.049-6.444,10.749-9.187,17.182-6.15
	c6.444,3.048,9.198,10.738,6.15,17.182c-5.989,12.664-14.65,23.497-25.744,32.204c-15.971,12.525-35.264,19.157-55.247,19.157
	c-3.635,0-7.288-0.22-10.953-0.66c-23.813-2.877-45.081-14.857-59.886-33.73c-14.805-18.873-21.371-42.384-18.494-66.199
	c2.877-23.813,14.857-45.083,33.73-59.886c14.58-11.437,31.799-17.816,49.435-18.987c0.344-0.57,0.692-1.142,1.133-1.668
	c31.42-37.555,63.802-57.327,96.243-58.767c33.03-1.465,56.225,16.565,67.101,27.448c31.076,31.076,33.065,73.016,34.664,106.717
	c1.074,22.666,2.089,44.079,11.444,56.007c11.304,14.408,32.22,16.938,46.626,5.634c8.887-6.969,13.59-17.857,12.584-29.123
	c-0.635-7.1,4.607-13.37,11.704-14.002c7.114-0.67,13.367,4.607,14.002,11.704C491.615,446.036,483.258,465.375,467.467,477.758z
	 M503.57,363.012c-0.847,7.008-12.516,25.418-18.674,34.733c-1.556,2.352-5.114,1.923-6.064-0.733
	c-3.763-10.514-10.711-31.174-9.863-38.182c1.155-9.555,9.836-16.364,19.391-15.209C497.913,344.776,504.723,353.459,503.57,363.012
	z"/>
</svg>
