<?xml version="1.0" encoding="iso-8859-1"?>
<!-- Generator: Adobe Illustrator 17.1.0, SVG Export Plug-In . SVG Version: 6.00 Build 0)  -->
<!DOCTYPE svg PUBLIC "-//W3C//DTD SVG 1.1//EN" "http://www.w3.org/Graphics/SVG/1.1/DTD/svg11.dtd">
<svg version="1.1" id="Layer_1" xmlns="http://www.w3.org/2000/svg" xmlns:xlink="http://www.w3.org/1999/xlink" x="0px" y="0px"
	 viewBox="0 0 200.3 31.9" enable-background="new 0 0 200.3 31.9" xml:space="preserve">
<g>
	<g>
		<path d="M10.9,11c-0.3,0.4-0.9,0.4-1.3,0.2C8.9,10.7,8,10.3,7,10.3c-0.9,0-1.6,0.5-1.6,1.3c0,1.1,1.2,1.6,2.7,2.2
			c2.2,0.9,4.9,2,4.9,5.2c0,3.7-3.2,5.4-6.5,5.4c-2.3,0-4.3-0.8-6-2.2c-0.4-0.4-0.5-1-0.1-1.5l1.2-1.2c0.4-0.4,1-0.4,1.4-0.1
			c1,0.8,1.9,1.3,3.3,1.3c0.9,0,2.1-0.4,2.1-1.5c0-1.2-1.5-1.7-3.2-2.4c-2-0.9-4.2-2-4.2-4.9c0-3.4,2.9-5.1,6-5.1
			c1.8,0,3.5,0.5,4.9,1.5c0.5,0.4,0.6,1.1,0.2,1.5L10.9,11z"/>
		<path d="M19.8,8L20,9.2c1.2-1.8,3.5-2.5,5.2-2.5c4.5,0,7.8,4,7.8,8.8c0,4.7-3.3,8.7-7.9,8.7c-1.6,0-3.6-0.5-4.9-2v8.6
			c0,0.6-0.4,1-1,1h-2.5c-0.6,0-1-0.4-1-1V8.2c0-0.6,0.4-1,1-1h2.1C19.3,7.2,19.7,7.5,19.8,8z M20.3,18.6c1.1,1.3,2.5,1.8,3.9,1.8
			c2.9,0,4.2-2.6,4.2-4.9c0-2.5-1.6-4.8-4.2-4.8c-1.4,0-3,0.6-4,2.2V18.6z"/>
		<path d="M40,9.4c1-1.6,2.3-2.6,3.9-2.6c0.4,0,0.8,0,1.1,0.1c0.6,0.1,1,0.7,0.8,1.3l-0.5,2c-0.1,0.5-0.7,0.8-1.2,0.7
			c-0.2,0-0.4-0.1-0.7-0.1c-1.3,0-2.5,0.7-3.2,1.9v10.4c0,0.6-0.4,1-1,1h-2.5c-0.6,0-1-0.4-1-1V8.2c0-0.6,0.4-1,1-1h2.1
			c0.5,0,0.9,0.4,1,0.8L40,9.4z"/>
		<path d="M51.7,7.2c0.4,0,0.8,0.3,0.9,0.7l3.2,9.3h0.1l3.2-9.3c0.1-0.4,0.5-0.7,0.9-0.7h2.7c0.7,0,1.2,0.7,0.9,1.4l-8.6,22.2
			c-0.2,0.5-0.8,0.8-1.3,0.6l-2.2-0.8c-0.5-0.2-0.8-0.8-0.6-1.3l2.3-6.2L48,8.5c-0.2-0.7,0.2-1.4,0.9-1.4H51.7z"/>
	</g>
	<g>
		<path d="M75.1,16.7c0.3,2.3,1.8,4,4.2,4c1.8,0,2.9-0.6,3.8-1.8c0.3-0.4,0.9-0.5,1.3-0.2l1.3,0.9c0.5,0.3,0.6,1,0.2,1.5
			c-1.8,2.2-3.8,3.3-7,3.3c-5.1,0-8.5-3.5-8.5-8.6c0-5.1,3.7-9,8.5-9c4.7,0,8.1,3.3,8.1,7.8c0,0.7-0.1,1.5-0.2,2.1H75.1z M82.5,13.6
			c-0.1-2-1.5-3.3-3.4-3.3c-2.2,0-3.4,1.4-3.8,3.3H82.5z"/>
		<path d="M93.2,24h-2.5c-0.6,0-1-0.4-1-1V1c0-0.6,0.4-1,1-1h2.5c0.6,0,1,0.4,1,1v21.9C94.2,23.5,93.7,24,93.2,24z"/>
		<path d="M101.2,16.7c0.3,2.3,1.8,4,4.2,4c1.8,0,2.9-0.6,3.8-1.8c0.3-0.4,0.9-0.5,1.3-0.2l1.3,0.9c0.5,0.3,0.6,1,0.2,1.5
			c-1.8,2.2-3.8,3.3-7,3.3c-5.1,0-8.5-3.5-8.5-8.6c0-5.1,3.7-9,8.5-9c4.7,0,8.1,3.3,8.1,7.8c0,0.7-0.1,1.5-0.2,2.1H101.2z
			 M108.6,13.6c-0.1-2-1.5-3.3-3.4-3.3c-2.2,0-3.4,1.4-3.8,3.3H108.6z"/>
		<path d="M119.8,8l0.2,1.2c1.2-1.8,3.5-2.5,5.2-2.5c4.5,0,7.8,4,7.8,8.8c0,4.7-3.3,8.7-7.9,8.7c-1.6,0-3.6-0.5-4.9-2v8.6
			c0,0.6-0.4,1-1,1h-2.5c-0.6,0-1-0.4-1-1V8.2c0-0.6,0.4-1,1-1h2.1C119.3,7.2,119.7,7.5,119.8,8z M120.3,18.6
			c1.1,1.3,2.5,1.8,3.9,1.8c2.9,0,4.2-2.6,4.2-4.9c0-2.5-1.6-4.8-4.2-4.8c-1.4,0-3,0.6-4,2.2V18.6z"/>
		<path d="M140.1,9.1c1.3-1.6,3.2-2.4,4.9-2.4c1.8,0,3.4,0.9,4.5,2.2c1.3,1.7,1.5,3.9,1.5,6.3v7.7c0,0.6-0.4,1-1,1h-2.5
			c-0.6,0-1-0.4-1-1v-7.5c0-1.2,0-2.7-0.5-3.6c-0.4-0.8-1.2-1.2-2.2-1.2c-1.3,0-2.8,0.8-3.6,2.1v10.1c0,0.6-0.4,1-1,1h-2.5
			c-0.6,0-1-0.4-1-1V1c0-0.6,0.4-1,1-1h2.5c0.6,0,1,0.4,1,1V9.1z"/>
		<path d="M164.5,23.2l-0.2-0.7c-1.1,1.3-2.8,1.8-4.6,1.8c-3.1,0-6-1.9-6-5.3c0-4.1,3.8-5.4,7.3-5.4c0.9,0,2,0.1,3,0.4v-0.3
			c0-2.1-0.9-3.4-3.3-3.4c-1.5,0-2.9,0.4-4.1,1c-0.5,0.2-1.1,0-1.3-0.6l-0.5-1.3c-0.2-0.5,0.1-1.1,0.5-1.3c2-0.8,4.2-1.3,6.3-1.3
			c4.7,0,6.9,2.7,6.9,7.1v9.1c0,0.6-0.4,1-1,1h-2.1C165,24,164.6,23.6,164.5,23.2z M164,16.6c-0.9-0.2-1.6-0.3-2.3-0.3
			c-1.7,0-3.6,0.6-3.6,2.6c0,1.5,1.2,2.2,2.6,2.2c1.3,0,2.4-0.6,3.4-1.4V16.6z"/>
		<path d="M176.1,8l0.2,1.4c1.3-1.9,3.4-2.7,5.2-2.7c1.8,0,3.4,0.9,4.5,2.2c1.3,1.7,1.5,3.9,1.5,6.3v7.7c0,0.6-0.4,1-1,1H184
			c-0.6,0-1-0.4-1-1v-7.5c0-1.2,0-2.7-0.5-3.6c-0.4-0.8-1.2-1.2-2.2-1.2c-1.3,0-2.8,0.8-3.6,2.1v10.1c0,0.6-0.4,1-1,1H173
			c-0.6,0-1-0.4-1-1V8.2c0-0.6,0.4-1,1-1h2.1C175.6,7.2,176,7.5,176.1,8z"/>
		<path d="M195.7,10.9v6.5c0,0.5,0,1,0.1,1.4c0.1,1,0.5,1.6,1.5,1.6c0.4,0,0.7-0.1,1-0.1c0.5-0.1,1,0.1,1.2,0.6l0.7,1.6
			c0.2,0.5,0,1.1-0.6,1.3c-1,0.4-2.1,0.6-3.1,0.6c-2.6,0-4.4-1.4-5-3.6c-0.3-0.8-0.3-1.8-0.3-2.8v-7h-1c-0.6,0-1-0.4-1-1V8.2
			c0-0.6,0.4-1,1-1h1l0.5-2.9c0.1-0.5,0.5-0.8,1-0.8h2c0.6,0,1,0.4,1,1v2.7h3.3c0.6,0,1,0.4,1,1v1.8c0,0.6-0.4,1-1,1H195.7z"/>
	</g>
</g>
</svg>
